Coordinates
version=1
nRows=10
nColumns=22
inDegrees=yes

Units are S.I. units (second, meters, Newtons, ...)
If the header above contains a line with 'inDegrees', this indicates whether rotational values are in degrees (yes) or radians (no).

endheader
time	pelvis_tilt	pelvis_list	pelvis_rotation	pelvis_tx	pelvis_ty	pelvis_tz	hip_flexion_r	hip_adduction_r	hip_rotation_r	knee_angle_r	ankle_angle_r	subtalar_angle_r	hip_flexion_l	hip_adduction_l	hip_rotation_l	knee_angle_l	ankle_angle_l	subtalar_angle_l	lumbar_extension	lumbar_bending	lumbar_rotation
      0.01000000	     -7.99327570	      2.04970376	    -35.87519456	     -1.80903109	      0.88278959	     -0.53332282	     13.80285991	      0.25790639	     -0.47929011	    -15.96006688	     14.54652764	      1.43195447	     12.47029428	     -8.12510733	     -6.53297359	    -19.77240626	     18.26024759	      8.47098721	      1.55173207	      1.73737163	     12.62959610
      0.02000000	     -7.99035816	      2.05992541	    -35.90415389	     -1.80897387	      0.88278043	     -0.53333097	     13.81528829	      0.24913602	     -0.44762088	    -15.97983834	     14.55602743	      1.43045928	     12.46055842	     -8.10889359	     -6.52203903	    -19.76459212	     18.26199686	      8.47185574	      1.55133586	      1.72762564	     12.61704572
      0.03000000	     -7.99356697	      2.06229821	    -35.93069394	     -1.80886176	      0.88277182	     -0.53333471	     13.81458038	      0.24663061	     -0.44757957	    -15.97915328	     14.55658182	      1.43029011	     12.45649285	     -8.10230811	     -6.51795021	    -19.77297858	     18.26194261	      8.47107357	      1.55607148	      1.72977565	     12.61125469
      0.04000000	     -8.00389546	      2.10110660	    -35.98891628	     -1.80879329	      0.88271972	     -0.53332990	     13.84964442	      0.22787087	     -0.35433943	    -15.98213870	     14.56170058	      1.43096764	     12.47891119	     -8.07512229	     -6.55371118	    -19.78907124	     18.27786637	      8.42847437	      1.58503886	      1.70496731	     12.62858802
      0.05000000	     -8.01017962	      2.10368741	    -36.02104037	     -1.80867588	      0.88270896	     -0.53332577	     13.85142929	      0.22853346	     -0.35542297	    -15.97976094	     14.56189642	      1.43103615	     12.47568229	     -8.07098557	     -6.54915117	    -19.79680794	     18.27786693	      8.42610970	      1.58614027	      1.70492794	     12.61826829
      0.06000000	     -8.03999960	      2.13706809	    -36.07810982	     -1.80859632	      0.88264584	     -0.53331621	     13.88930160	      0.22794190	     -0.26266993	    -15.96293130	     14.55540770	      1.43592621	     12.51482775	     -8.06089382	     -6.58588885	    -19.81908804	     18.29618086	      8.35024758	      1.62498725	      1.69613438	     12.62902418
      0.07000000	     -8.04895943	      2.14079250	    -36.10818877	     -1.80845729	      0.88263574	     -0.53331985	     13.89162959	      0.22740572	     -0.26471629	    -15.95892288	     14.55559949	      1.43603885	     12.51195069	     -8.05607913	     -6.58293371	    -19.82412437	     18.29653734	      8.34756497	      1.62406597	      1.69811757	     12.61818591
      0.08000000	     -8.08761711	      2.17550580	    -36.15592295	     -1.80835414	      0.88257339	     -0.53330460	     13.92795294	      0.22883650	     -0.18438206	    -15.92796571	     14.53863376	      1.44430874	     12.55195885	     -8.04887293	     -6.61672252	    -19.83084269	     18.30979866	      8.26677567	      1.66902252	      1.69200222	     12.61931543
      0.09000000	     -8.10618604	      2.18561266	    -36.18336908	     -1.80820491	      0.88255867	     -0.53330246	     13.93847187	      0.22928019	     -0.17720401	    -15.91990871	     14.53610248	      1.44626892	     12.55251515	     -8.04480769	     -6.62902126	    -19.81986532	     18.31374247	      8.25183256	      1.67803176	      1.69520027	     12.59643391
      0.10000000	     -8.13935934	      2.20995571	    -36.20903004	     -1.80808513	      0.88252259	     -0.53331653	     13.96223119	      0.22847029	     -0.14198242	    -15.88971468	     14.52088727	      1.45302337	     12.57451138	     -8.03791597	     -6.64714102	    -19.80203912	     18.31906712	      8.21970769	      1.70167036	      1.69290130	     12.58822894
